<?xml version="1.0" encoding="UTF-8"?>
<svg id="a" data-name="Layer_4" xmlns="http://www.w3.org/2000/svg" viewBox="0 0 64.4 19.09">
  <path d="M57.25,5.12h.64v-.4c-.6.06-1.18.2-1.75.38v11.05h1.28c.26,0,.47-.21.47-.48v-4.75h-.64c-.41,0-.75-.34-.75-.75v-4.3c0-.41.34-.75.75-.75ZM54.92,3.55c-.76.2-1.42.41-2.04.61-.11.03-.21.07-.32.1h1.34c.79-.27,1.61-.53,2.62-.71h-1.6ZM46.84,3.56c.74.13,1.5099.21,2.31.21.58,0,1.16-.08,1.75-.22l-4.06.0099ZM51.92,3.55c-.95.28-1.85.47-2.77.47-1.23,0-2.41-.18-3.48-.46h-1.19c1.2.4301,2.65.76,4.27.76,1.39,0,2.53-.35,3.84-.77h-.67ZM50.35,5.78c.04.1.07.2.07.31.32-.04.63-.09.94-.15v-.36c-.32.07-.65.14-1.01.2ZM48.75,4.99c-2.44,0-4.51-.71-5.99-1.4301h-1.33c1.04.59,2.54,1.2401,4.24,1.61h.01c.02-.01.03-.01.05-.01h3.7c.2,0,.39.06.55.16.5-.06.95-.15,1.38-.25v-.45c-.83.22-1.65.37-2.61.37ZM50.35,5.78c.04.1.07.2.07.31.32-.04.63-.09.94-.15v-.36c-.32.07-.65.14-1.01.2ZM9.59,3.58c-2.14,1.05-4.21,2.24-6.17,3.57v2.01c1.26-1.1,2.59-2.14,3.96-3.08.04-.51.47-.92.99-.92h.43c.91-.57,1.85-1.1,2.8-1.58h-2.0099ZM50.43,6.97v.27h-5.7v-.39c-.21-.03-.42-.07-.63-.11v.49h-5.7v-1.08c0-.4.24-.75.58-.9-1.52-.56-3.03-1.17-4.56-1.69l-16.89.01c-1.58.57-3.11,1.28-4.59,2.11.09.14.13.31.13.48v1.08h-2.67c-.17.11-.33.23-.5.34h3.17v2.3c0,.55-.45,1-1,1h-3.7c-.55,0-1-.45-1-1v-.36c-1.41,1.15-2.73,2.41-3.95,3.71v.27h11.19v.35H3.42v1.8c0,.28.23.5.5.5h10.92c-.03-.16-.04-.32-.04-.49,0-1.89,1.5-3.43,3.36-3.43s3.36,1.54,3.36,3.43c0,.17-.01.33-.04.49h4.89V4.26h4.78v11.89h12.9c-.03-.16-.04-.32-.04-.49,0-1.89,1.5-3.43,3.36-3.43s3.36,1.54,3.36,3.43c0,.17-.01.33-.04.49h.67V6.79c-.31.08-.62.14-.93.18ZM20.03,6.16c0-.55.45-1,1-1h3.7c.55,0,1,.45,1,1v1.08h-5.7v-1.08ZM19.4,9.89c0,.55-.45,1-1,1h-3.7c-.55,0-1-.45-1-1v-2.31h5.7v2.31ZM19.4,7.23h-5.7v-1.08c0-.55.45-1,1-1h3.7c.55,0,1,.45,1,1v1.08ZM21.03,10.89c-.55,0-1-.45-1-1v-2.31h5.7v2.31c0,.55-.45,1-1,1h-3.7ZM25.74,13.85h-4.03v-.35h4.03v.35ZM32.07,6.16c0-.55.45-1,1-1h3.7c.55,0,1,.45,1,1v1.08h-5.7v-1.08ZM32.07,7.57h5.7v2.31c0,.55-.45,1-1,1h-3.7c-.55,0-1-.45-1-1v-2.31ZM43.78,13.85h-12v-.35l12-.03v.38ZM44.1,9.88c0,.55-.45,1-1,1h-3.7c-.55,0-1-.45-1-1v-2.3h5.7v2.3ZM50.43,9.88c0,.55-.45,1-1,1h-3.7c-.55,0-1-.45-1-1v-2.3h5.7v2.3ZM5.69,3.58c-.77.36-1.52.74-2.27,1.14v1.29c1.36-.87,2.75-1.68,4.18-2.43h-1.91ZM50.35,5.78c.04.1.07.2.07.31.32-.04.63-.09.94-.15v-.36c-.32.07-.65.14-1.01.2ZM50.35,5.78c.04.1.07.2.07.31.32-.04.63-.09.94-.15v-.36c-.32.07-.65.14-1.01.2ZM50.35,5.78c.04.1.07.2.07.31.32-.04.63-.09.94-.15v-.36c-.32.07-.65.14-1.01.2ZM38.4,3.56c1.39.58,2.8,1.14,4.23,1.59h.47c.31,0,.58.14.77.36.32.09.63.17.95.24.04-.09.09-.17.16-.24-1.92-.5-3.55-1.32-4.49-1.95h-2.09ZM50.35,5.78c.04.1.07.2.07.31.32-.04.63-.09.94-.15v-.36c-.32.07-.65.14-1.01.2ZM50.35,5.78c.04.1.07.2.07.31.32-.04.63-.09.94-.15v-.36c-.32.07-.65.14-1.01.2ZM50.35,5.78c.04.1.07.2.07.31.32-.04.63-.09.94-.15v-.36c-.32.07-.65.14-1.01.2ZM57.86,3.88c-.86.07-1.59.21-2.25.38h.53v.23c.57-.15,1.15-.26,1.75-.3v-.14c0-.06-.01-.12-.03-.17Z" style="fill: #085394;"/>
  <path d="M47.37,12.81c-1.57,0-2.85,1.28-2.85,2.85,0,.17.01.33.05.49.23,1.34,1.4,2.36,2.8,2.36s2.57-1.02,2.8-2.36c.04-.16.05-.32.05-.49,0-1.57-1.28-2.85-2.85-2.85ZM47.37,17.17c-.66,0-1.22-.43-1.42-1.02-.06-.15-.09-.32-.09-.49,0-.83.68-1.51,1.51-1.51s1.51.68,1.51,1.51c0,.17-.03.34-.09.49-.2.59-.7599,1.02-1.42,1.02Z" style="fill: #085394;"/>
  <path d="M18.16,12.81c-1.5699,0-2.85,1.28-2.85,2.85,0,.17.01.33.05.49.23,1.34,1.4,2.36,2.8,2.36s2.57-1.02,2.8-2.36c.04-.16.05-.32.05-.49,0-1.57-1.28-2.85-2.85-2.85ZM18.16,17.17c-.66,0-1.22-.43-1.42-1.02-.06-.15-.09-.32-.09-.49,0-.83.68-1.51,1.5099-1.51s1.51.68,1.51,1.51c0,.17-.03.34-.09.49-.2.59-.76,1.02-1.42,1.02Z" style="fill: #085394;"/>
  <path d="M59.06,5.37v2.29c0,.11-.09.2-.2.2s-.2-.09-.2-.2v-2.29c0-.22-.18-.4-.4-.4v-.4c.44,0,.8.36.8.8Z" style="fill: #085394;"/>
  <path d="M51.71,5.49v.37c.12-.02.23-.05.35-.08.02-.17.09-.32.21-.44-.18.04-.37.1-.56.15ZM55.25,5.41c.1.13.16.29.16.46v4.3c0,.41-.33.75-.75.75-.41,0-.75-.34-.75-.75v-4.24c-.12.04-.24.09-.36.1299v4.11c0,.41-.34.75-.75.75h-.01c-.41,0-.74-.34-.74-.75v-3.57c-.11.04-.22.07-.34.1v9.45h4.08V5.21c-.18.06-.36.13-.54.2ZM55.45,13.85h-3.38v-.35h3.38v.35ZM55.67,4.61h-1.24c-.29.09-.56.19-.84.28-.23.08-.46.16-.7.24.18.02.35.11.46.2401.76-.26,1.53-.54,2.32-.76ZM51.71,4.61v.36c.4-.11.78-.23,1.16-.36h-1.16Z" style="fill: #085394;"/>
  <path d="M26.72,4.61v11.54h4.08V4.61h-4.08ZM28.92,5.87c0-.41.34-.75.75-.75.42,0,.75.34.75.75v4.3c0,.41-.33.75-.75.75-.41,0-.75-.34-.75-.75v-4.3ZM27.05,5.87c0-.41.34-.75.75-.75h.01c.41,0,.74.34.74.75v4.3c0,.41-.33.75-.74.75h-.01c-.41,0-.75-.34-.75-.75v-4.3ZM30.45,13.85h-3.38v-.35h3.38v.35Z" style="fill: #085394;"/>
  <path d="M9.56,1.12c-1.81.6-3.59,1.3-5.34,2.08h-.8l.37-.53c.23-.32.57-.54.96-.62l4.36-.93h.45Z" style="fill: #085394;"/>
  <path d="M13.09,1.12c-1.6201.6-3.21,1.3-4.76,2.08h-1.84c1.7-.78,3.44-1.48,5.21-2.08h1.39Z" style="fill: #085394;"/>
  <path d="M17.95,1.12c-1.91.5099-3.78,1.21-5.59,2.08h-1.98c.74-.35,1.49-.69,2.25-1,.95-.4,1.91-.76,2.89-1.08h2.43Z" style="fill: #085394;"/>
  <path d="M33.3,3.2h-14.68c3.23-1.01,6.64-1.41,10.1-.95,1.57.13,3.09.4901,4.58.95Z" style="fill: #085394;"/>
  <g>
    <path d="M57.89,4.19v.53c-.6.06-1.18.2-1.75.38v-.61c.57-.15,1.15-.26,1.75-.3Z" style="fill: #ffcc06;"/>
    <path d="M52.06,5.78c-.01.03-.01.06-.01.09v.73c-.11.04-.22.07-.34.1v-.84c.12-.02.23-.05.35-.08Z" style="fill: #ffcc06;"/>
    <path d="M51.36,5.94v.85c-.31.08-.62.14-.93.18v-.81c0-.02,0-.05-.01-.07.32-.04.63-.09.94-.15Z" style="fill: #ffcc06;"/>
    <path d="M44.82,5.75c-.06.13-.09.26-.09.41v.69c-.21-.03-.42-.07-.63-.11v-.59c0-.24-.09-.47-.23-.64.32.09.63.17.95.24Z" style="fill: #ffcc06;"/>
    <path d="M42.63,5.15h-3.23c-.15,0-.29.03-.42.1-1.52-.56-3.03-1.17-4.56-1.69h3.98c1.39.58,2.8,1.14,4.23,1.59Z" style="fill: #ffcc06;"/>
    <path d="M17.53,3.57c-1.58.57-3.11,1.28-4.59,2.11-.16-.31-.49-.52-.87-.52h-3.27c.91-.57,1.85-1.1,2.8-1.58l5.9301-.01Z" style="fill: #ffcc06;"/>
    <path d="M10.4,7.24c-.17.11-.33.23-.5.34h-2.53v1.94c-1.41,1.15-2.73,2.41-3.95,3.71v-4.07c1.26-1.1,2.59-2.14,3.96-3.08-.01.03-.01.05-.01.08v1.08h3.03Z" style="fill: #ffcc06;"/>
    <path d="M34.05,3.2h-.75c-1.49-.46-3.01-.82-4.58-.95-3.46-.46-6.87-.06-10.1.95h-6.26c1.81-.87,3.68-1.57,5.59-2.08h13.19l2.91,2.08Z" style="fill: #ffcc06;"/>
    <path d="M55.79,4.61v.6c-.18.06-.36.13-.54.2-.13-.18-.35-.29-.59-.29-.41,0-.75.34-.75.75v.06c-.12.04-.24.09-.36.1299v-.1899c0-.19-.07-.3701-.2-.5.76-.26,1.53-.54,2.32-.76h.12Z" style="fill: #ffcc06;"/>
    <path d="M9.59,3.58c-2.14,1.05-4.21,2.24-6.17,3.57v-1.14c1.36-.87,2.75-1.68,4.18-2.43h1.9901Z" style="fill: #ffcc06;"/>
    <path d="M15.52,1.12c-.98.3199-1.94.68-2.89,1.08-.76.31-1.51.65-2.25,1h-2.05c1.55-.78,3.14-1.48,4.76-2.08h2.43Z" style="fill: #ffcc06;"/>
    <path d="M5.69,3.58c-.77.36-1.52.74-2.27,1.14v-1.14h2.27Z" style="fill: #ffcc06;"/>
    <path d="M11.7,1.12c-1.77.6-3.51,1.3-5.21,2.08h-2.27c1.75-.78,3.53-1.48,5.34-2.08h2.14Z" style="fill: #ffcc06;"/>
    <path d="M57.86,3.88c-.86.07-1.59.21-2.25.38h-1.71c.79-.27,1.61-.53,2.62-.71h.87c.22,0,.4.14.47.33Z" style="fill: #ffcc06;"/>
    <path d="M54.43,4.61c-.29.09-.56.19-.84.28-.23.08-.46.16-.7.24-.03-.0099-.06-.0099-.09-.0099h-.01c-.19,0-.37.08-.5.21q-.0099,0-.02.01c-.18.04-.37.1-.56.15v-.52c.4-.11.78-.23,1.16-.36h1.56Z" style="fill: #ffcc06;"/>
    <path d="M51.36,5.07v.51c-.32.07-.65.14-1.01.2-.0699-.19-.2-.34-.37-.46.5-.06.95-.15,1.38-.25Z" style="fill: #ffcc06;"/>
    <path d="M45.67,5.17c-.28.01-.53.14-.69.34-1.92-.5-3.55-1.32-4.49-1.95h.94c1.04.59,2.54,1.2401,4.24,1.61Z" style="fill: #ffcc06;"/>
    <path d="M54.92,3.55c-.76.2-1.42.41-2.04.61-.11.03-.21.07-.32.1h-1.2v.36c-.83.22-1.65.37-2.61.37-2.44,0-4.51-.71-5.99-1.4301h1.72c1.2.4301,2.65.76,4.27.76,1.39,0,2.53-.35,3.84-.77h2.33Z" style="fill: #ffcc06;"/>
    <path d="M51.92,3.55c-.95.28-1.85.47-2.77.47-1.23,0-2.41-.18-3.48-.46h1.17c.74.13,1.5099.21,2.31.21.58,0,1.16-.08,1.75-.22.0099.0099.02,0,.02,0h1Z" style="fill: #ffcc06;"/>
  </g>
</svg>