<svg xmlns="http://www.w3.org/2000/svg" viewBox="0 0 37.34 19.83" xmlns:v="https://vecta.io/nano"><g fill="#085394"><path d="M28.44 8.61v.47h-4.23v-.47zm-7.15-.01v.48h-4.33V8.6zm-7.19 0v.48H9.77V8.6zm-7.19 0v.48H2.58V8.6zm1.15 5.72a2.76 2.76 0 0 0-2.76 2.76c0 1.53 1.23 2.76 2.76 2.76s2.76-1.23 2.76-2.76-1.23-2.76-2.76-2.76zm0 4.2a1.44 1.44 0 0 1-1.44-1.44 1.45 1.45 0 0 1 1.44-1.44 1.45 1.45 0 0 1 1.44 1.44 1.45 1.45 0 0 1-1.44 1.44zm17.57-4.2a2.76 2.76 0 0 0-2.76 2.76c0 1.53 1.23 2.76 2.76 2.76s2.76-1.23 2.76-2.76-1.23-2.76-2.76-2.76zm0 4.2a1.44 1.44 0 0 1-1.44-1.44 1.45 1.45 0 0 1 1.44-1.44 1.45 1.45 0 0 1 1.44 1.44 1.45 1.45 0 0 1-1.44 1.44zM35.79 6.33h.25v-3c0-.61-.5-1.11-1.11-1.11H0v12.09h4.18v.48H0v1.17c0 .62.5 1.12 1.11 1.12h3.67a3.27 3.27 0 0 1 3.27-3.27 3.28 3.28 0 0 1 3.27 3.27h11.03a3.27 3.27 0 0 1 3.27-3.27 3.28 3.28 0 0 1 3.27 3.27h6.03c.61 0 1.11-.5 1.11-1.11v-3.04h-.25c-.55 0-1-.45-1-1V7.34c0-.55.45-1 1-1zM7.33 10.25c0 .55-.45 1-1 1H3.16c-.55 0-1-.45-1-1V7.43c0-.55.45-1 1-1h3.17c.55 0 1 .45 1 1v2.82zm3.02 1c-.55 0-1-.45-1-1V7.43c0-.55.45-1 1-1h3.17c.55 0 1 .45 1 1v2.82c0 .55-.45 1-1 1h-3.17zm11.36 3.54h-9.78v-.48h9.78v.48zm0-4.54c0 .55-.45 1-1 1h-3.17c-.55 0-1-.45-1-1V7.43c0-.55.45-1 1-1h3.17c.55 0 1 .45 1 1v2.82zm7.2 0c0 .55-.45 1-1 1h-3.17c-.55 0-1-.45-1-1V7.43c0-.55.45-1 1-1h3.17c.55 0 1 .45 1 1v2.82zm5.04 4.58c0 .55-.45 1-1 1h-2.21c-.55 0-1-.45-1-1v-7.5c0-.55.45-1 1-1h2.21c.55 0 1 .45 1 1v7.5z"/><path d="M2 0h17.13v2.22H0V2C0 .9.9 0 2 0z"/><ellipse cx="19.53" cy="2.91" rx="8.2" ry="2.91"/><path d="M36.04,5.68h.65c.36,0,.65.29.65.65h-1.3v-.65h0Z"/><path d="M37.34 8.39h0a.65.65 0 0 1-.65-.65V6.33h.65v2.05h0zm-5.26 6.97h-.47V6.79h.47z"/></g><g fill="#ffcc06"><path d="M32.66 2.22c-.76.66-1.6 1.23-2.49 1.68-5.21 2.41-8.72-1.5-13.5-3.9H3.54C2.42.51 1.25 1.14 0 1.94v3.71C2.84 3.16 6.01 1.09 9.75.51c3.51-.54 6.83.95 9.92 2.61C22.8 4.91 27 6.56 30.36 4.26c.96-.54 1.76-1.27 2.54-2.03h-.23z"/><path d="M33.25 2.22c-1.03 1.27-2.15 2.48-3.47 3.35-.67.42-1.32.69-1.96.85h.09c.44 0 .81.29.94.7 2.05-1.07 3.56-3.01 4.8-4.9h-.39zm-9.52 5.21c0-.55.45-1 1-1h.06C18.57 4.97 12.64-4.05 0 6.94v5.73c.68-.86 1.4-1.72 2.15-2.55v-2.7c0-.55.45-1 1-1h3.12c2.53-1.74 5.41-2.7 8.67-1.98 1.81.34 3.59 1.2 5.4 1.98h.37c.36 0 .67.2.84.49.72.28 1.44.52 2.18.69v-.18zm7.9-5.21C29.99 3.38 28.07 4 26.01 3.36 23.87 2.66 22.1 1.3 20.26 0h-2.44c.98.46 1.93 1 2.85 1.56 2.72 1.64 6.29 3.57 9.43 1.81.61-.33 1.18-.72 1.73-1.14h-.2z"/></g></svg>